<?xml version="1.0" ?><!DOCTYPE svg  PUBLIC '-//W3C//DTD SVG 1.1//EN'  'http://www.w3.org/Graphics/SVG/1.1/DTD/svg11.dtd'><svg height="100%" style="fill-rule:evenodd;clip-rule:evenodd;stroke-linejoin:round;stroke-miterlimit:2;" version="1.1" viewBox="0 0 24 24" width="100%" xml:space="preserve" xmlns="http://www.w3.org/2000/svg" xmlns:serif="http://www.serif.com/" xmlns:xlink="http://www.w3.org/1999/xlink"><g id="Icon"><path d="M2.25,19l-0,-7c0,-5.385 4.365,-9.75 9.75,-9.75l0,0c5.385,0 9.75,4.365 9.75,9.75c0,2.634 0,5.268 0,7c0,1.519 -1.231,2.75 -2.75,2.75c-0.644,0 -1.356,0 -2,-0c-1.519,-0 -2.75,-1.231 -2.75,-2.75c0,-1.222 0,-2.778 0,-4c0,-1.519 1.231,-2.75 2.75,-2.75l3.25,0l0,-0.25c0,-4.556 -3.694,-8.25 -8.25,-8.25l0,0c-4.556,-0 -8.25,3.694 -8.25,8.25l-0,0.25l3.25,0c1.519,0 2.75,1.231 2.75,2.75c0,1.222 0,2.778 -0,4c-0,1.519 -1.231,2.75 -2.75,2.75c-0.644,0 -1.356,0 -2,-0c-1.519,-0 -2.75,-1.231 -2.75,-2.75Zm18,-5.25l-3.25,0c-0.69,0 -1.25,0.56 -1.25,1.25c0,1.222 0,2.778 -0,4c0,0.69 0.56,1.25 1.25,1.25c0.644,0 1.356,0 2,0c0.69,-0 1.25,-0.56 1.25,-1.25l0,-5.25Zm-16.5,0l-0,5.25c-0,0.69 0.56,1.25 1.25,1.25c0.644,0 1.356,0 2,-0c0.69,-0 1.25,-0.56 1.25,-1.25c0,-1.222 0,-2.778 0,-4c-0,-0.69 -0.56,-1.25 -1.25,-1.25l-3.25,0Z"/></g></svg>